<svg width="30" height="30" fill="none" xmlns="http://www.w3.org/2000/svg"><rect width="30" height="30" rx="3" fill="#fff"/><path d="M26.2 8.922c.163-.549 0-.953-.782-.953H22.83c-.66 0-.963.347-1.125.734 0 0-1.319 3.212-3.182 5.295-.602.602-.879.796-1.209.796-.162 0-.413-.194-.413-.743V8.922c0-.659-.184-.953-.73-.953h-4.069c-.412 0-.659.307-.659.593 0 .624.932.769 1.029 2.527v3.814c0 .835-.15.99-.48.99-.878 0-3.014-3.227-4.28-6.918-.254-.716-.505-1.006-1.169-1.006H3.955c-.738 0-.888.347-.888.734 0 .685.88 4.09 4.092 8.59 2.14 3.073 5.154 4.738 7.897 4.738 1.648 0 1.85-.369 1.85-1.006 0-2.936-.15-3.212.677-3.212.382 0 1.041.193 2.58 1.674 1.757 1.758 2.047 2.544 3.031 2.544h2.589c.738 0 1.111-.369.896-1.098-.492-1.534-3.819-4.69-3.968-4.9-.382-.493-.272-.712 0-1.152.004-.004 3.164-4.451 3.49-5.959z" fill="#07F"/></svg>