<svg width="30" height="30" fill="none" xmlns="http://www.w3.org/2000/svg"><rect width="30" height="30" rx="3" fill="#fff"/><path d="M24.193 13.164h-.756v-.039H15v3.75h5.298A5.623 5.623 0 019.375 15 5.625 5.625 0 0115 9.375a5.59 5.59 0 013.732 1.425l2.651-2.652A9.331 9.331 0 0015 5.625a9.375 9.375 0 109.193 7.539z" fill="#FFC107"/><path d="M6.706 10.636l3.08 2.26A5.623 5.623 0 0115 9.374c1.434 0 2.739.54 3.732 1.425l2.652-2.652A9.332 9.332 0 0015 5.625a9.37 9.37 0 00-8.294 5.011z" fill="#FF3D00"/><path d="M15 24.375a9.331 9.331 0 006.285-2.434l-2.901-2.455A5.583 5.583 0 0115 20.625 5.622 5.622 0 019.71 16.9l-3.057 2.356c1.551 3.036 4.702 5.119 8.346 5.119z" fill="#4CAF50"/><path d="M24.193 13.164h-.756v-.039H15v3.75h5.298a5.644 5.644 0 01-1.915 2.611l2.902 2.455c-.205.186 3.09-2.253 3.09-6.941 0-.629-.065-1.242-.182-1.836z" fill="#1976D2"/></svg>